<svg id="Layer_1" data-name="Layer 1" xmlns="http://www.w3.org/2000/svg" viewBox="0 0 229.78 47.83"><defs><style>.cls-1{fill:#1d8ac0;stroke:#1d8ac0;stroke-width:1.5px;}.cls-1,.cls-2{stroke-miterlimit:10;}.cls-2,.cls-3{fill:#0f4f94;}.cls-2{stroke:#0f4f94;stroke-width:2.5px;}.cls-3{font-size:33.94px;font-family:CenturyGothic-Bold, Century Gothic;font-weight:700;}</style></defs><path class="cls-1" d="M37,19.42a16.59,16.59,0,0,0-5.47-4.28,19,19,0,0,0-8.47-1.85c-.49,0-1,0-1.45,0a10.35,10.35,0,0,0,1,1.39c.17.19.5.5,1,.94a16.28,16.28,0,0,1,6.6,1.55,15.14,15.14,0,0,1,4.87,3.73.61.61,0,0,0,.84.09l1-.73a.62.62,0,0,0,.09-.88Zm-.14,22.32-1-.72a.61.61,0,0,0-.81.06,15.7,15.7,0,0,1-11.78,5.08A15.5,15.5,0,0,1,12.07,41.8,14.59,14.59,0,0,1,7.6,30.94a15.22,15.22,0,0,1,2-7.75,14.71,14.71,0,0,1,5.62-5.5,16.21,16.21,0,0,1,2.59-1.17c-.11-.14-.2-.28-.29-.41a11.91,11.91,0,0,1-.94-1.8,17.08,17.08,0,0,0-6.44,4A16.61,16.61,0,0,0,5,30.64,17.7,17.7,0,0,0,9.25,42.55c3.35,3.87,8,5.83,13.85,5.83a19.62,19.62,0,0,0,8.37-1.74,16.75,16.75,0,0,0,5.47-4,.56.56,0,0,0,.15-.46A.58.58,0,0,0,36.85,41.74Z" transform="translate(-4.25 -1.3)"/><path class="cls-2" d="M34.1,8.46a.77.77,0,0,1-.33.49l-1,.64a.75.75,0,0,1-1-.2A12.46,12.46,0,0,0,29,6.45a6.64,6.64,0,0,0-3.41-1.19A5.59,5.59,0,0,0,21.51,6.5a4.93,4.93,0,0,0-1.83,3.62A6,6,0,0,0,20,12.46l.09.25a1.63,1.63,0,0,0,.1.25,4.26,4.26,0,0,0,.23.49,11.24,11.24,0,0,0,1.44,2l.21.22.52.49.55.51c.78.69,1.86,1.62,3.28,2.82a26.75,26.75,0,0,1,6,6.56,9.65,9.65,0,0,1,1.34,5.34,8.8,8.8,0,0,1-3.31,6.37,9.69,9.69,0,0,1-7.19,2.33A10.34,10.34,0,0,1,17.58,38a14.6,14.6,0,0,1-3.89-5,.73.73,0,0,1,0-.58A.71.71,0,0,1,14,32l.91-.47a.81.81,0,0,1,.34-.08.78.78,0,0,1,.69.41c1.91,3.6,4.3,5.52,7.09,5.71a8.11,8.11,0,0,0,3.8-.68,6.73,6.73,0,0,0,2.86-2.35,6.49,6.49,0,0,0,1.15-3.29,6.82,6.82,0,0,0-1.09-4,30.51,30.51,0,0,0-6-6.46c-1.75-1.51-3.1-2.77-4-3.75l-.4-.44c-.14-.15-.26-.29-.37-.43a5.3,5.3,0,0,1-.49-.67A9.81,9.81,0,0,1,17.64,14c-.07-.16-.13-.33-.19-.49h0c-.06-.16-.11-.32-.16-.48A8.29,8.29,0,0,1,17,10.09a8.13,8.13,0,0,1,1.34-4,7.79,7.79,0,0,1,3.23-2.71,8.89,8.89,0,0,1,4.34-.78,9.2,9.2,0,0,1,4.51,1.52A14.37,14.37,0,0,1,34,7.88.78.78,0,0,1,34.1,8.46Z" transform="translate(-4.25 -1.3)"/><text class="cls-3" transform="translate(60.74 34.86)">Shop Club</text></svg>