<svg id="Layer_1" data-name="Layer 1" xmlns="http://www.w3.org/2000/svg" viewBox="0 0 74.49 26.66"><defs><style>.cls-1{fill:#1d8ac0;stroke:#1d8ac0;stroke-width:0.25px;}.cls-1,.cls-2{stroke-miterlimit:10;}.cls-2,.cls-3{fill:#0f4f94;}.cls-2{stroke:#0f4f94;stroke-width:0.5px;}.cls-3{font-size:10px;font-family:CenturyGothic-Bold, Century Gothic;font-weight:700;}</style></defs><path class="cls-1" d="M21.92,10.68a9.49,9.49,0,0,0-3.14-2.46,11,11,0,0,0-4.86-1.06l-.83,0a5.67,5.67,0,0,0,.61.8,6.16,6.16,0,0,0,.56.54A9.33,9.33,0,0,1,18,9.41a8.65,8.65,0,0,1,2.8,2.14.36.36,0,0,0,.48,0l.54-.42a.33.33,0,0,0,.14-.24A.35.35,0,0,0,21.92,10.68Zm-.08,12.79-.55-.41a.34.34,0,0,0-.46,0A9,9,0,0,1,14.07,26a8.89,8.89,0,0,1-6.45-2.5,8.43,8.43,0,0,1-2.56-6.23,8.72,8.72,0,0,1,1.15-4.44A8.43,8.43,0,0,1,9.43,9.68,8.57,8.57,0,0,1,10.92,9l-.17-.25a7.13,7.13,0,0,1-.54-1A9.88,9.88,0,0,0,6.52,10a9.54,9.54,0,0,0-2.95,7.08A10.16,10.16,0,0,0,6,23.94,10,10,0,0,0,14,27.28a11.18,11.18,0,0,0,4.8-1A9.64,9.64,0,0,0,21.89,24a.35.35,0,0,0,.09-.26A.35.35,0,0,0,21.84,23.47Z" transform="translate(-3.45 -0.75)"/><path class="cls-2" d="M20.26,4.39a.4.4,0,0,1-.19.28L19.51,5a.44.44,0,0,1-.6-.11,6.92,6.92,0,0,0-1.55-1.69,3.73,3.73,0,0,0-2-.68A3.2,3.2,0,0,0,13,3.27a2.85,2.85,0,0,0-1,2.07,3.64,3.64,0,0,0,.17,1.35,1.21,1.21,0,0,0,.05.14,1.21,1.21,0,0,0,0,.14l.14.28a6.2,6.2,0,0,0,.82,1.15l.13.13c.07.08.17.17.29.28L14,9.1c.44.4,1.07.93,1.88,1.62a15.12,15.12,0,0,1,3.44,3.76,5.48,5.48,0,0,1,.77,3.07,5,5,0,0,1-1.89,3.65A5.58,5.58,0,0,1,14,22.53a6,6,0,0,1-3.25-1.19A8.29,8.29,0,0,1,8.56,18.5a.38.38,0,0,1,0-.33.4.4,0,0,1,.21-.26l.53-.27a.45.45,0,0,1,.19-.05.47.47,0,0,1,.4.24C11,19.9,12.32,21,13.92,21.1a4.53,4.53,0,0,0,2.18-.39,3.76,3.76,0,0,0,1.64-1.34,3.65,3.65,0,0,0,.66-1.89,3.94,3.94,0,0,0-.62-2.31,17.72,17.72,0,0,0-3.46-3.7Q12.82,10.16,12,9.31l-.23-.25-.21-.24a3.3,3.3,0,0,1-.28-.39,5.24,5.24,0,0,1-.47-.87c0-.09-.08-.19-.11-.28h0L10.62,7a4.69,4.69,0,0,1-.18-1.67A4.48,4.48,0,0,1,11.21,3a4.38,4.38,0,0,1,1.84-1.56A5.18,5.18,0,0,1,15.55,1a5.3,5.3,0,0,1,2.58.87,8.24,8.24,0,0,1,2.06,2.18A.43.43,0,0,1,20.26,4.39Z" transform="translate(-3.45 -0.75)"/><text class="cls-3" transform="translate(24.69 19.91)">Shop Club</text></svg>