<svg id="Layer_1" data-name="Layer 1" xmlns="http://www.w3.org/2000/svg" viewBox="0 0 465.66 668.22"><defs><style>.cls-1,.cls-2{fill:#fff;stroke:#fff;stroke-miterlimit:10;}.cls-2{stroke-width:10px;}</style></defs><path class="cls-1" d="M471.61,256a238.51,238.51,0,0,0-79.14-61.91c-36.22-17.77-77.42-26.8-122.47-26.8q-10.62,0-21,.66a157.35,157.35,0,0,0,15.23,20.14c2.4,2.63,7.14,7.17,14.17,13.51,34.31,1,66.34,8.52,95.33,22.4a219.8,219.8,0,0,1,70.54,54,8.94,8.94,0,0,0,12.14,1.31l13.77-10.57a8.7,8.7,0,0,0,3.4-6A8.86,8.86,0,0,0,471.61,256Zm-2.06,322.67-13.68-10.4a8.86,8.86,0,0,0-11.75,1c-46.36,48.67-103.7,73.36-170.4,73.36-65.05,0-119.73-21.2-162.56-63S46.57,484.94,46.57,422.52c0-41.22,9.72-78.93,28.89-112S122,250.6,156.82,231a225.51,225.51,0,0,1,37.48-16.88c-1.6-2.15-3-4.18-4.2-6.06a157.81,157.81,0,0,1-13.69-25.91,247.27,247.27,0,0,0-93.07,57.59C34,287.74,9,347.76,9,418.15c0,67,20.68,125,61.42,172.26,48.53,55.94,115.9,84.31,200.23,84.31,44.45,0,85.19-8.46,121.1-25.17a244.8,244.8,0,0,0,79.13-58,8.54,8.54,0,0,0,2.17-6.6A8.79,8.79,0,0,0,469.55,578.67Z" transform="translate(-8.51 -7)"/><path class="cls-2" d="M429.75,97.44a11,11,0,0,1-4.79,7.17l-14,9.23A11,11,0,0,1,395.87,111c-14.65-20.51-27.51-34.45-39.31-42.62a96.37,96.37,0,0,0-49.28-17.11c-23.51-1.57-43.53,4.45-59.59,17.85s-25.05,31.14-26.48,52.37a90.31,90.31,0,0,0,4.28,33.91c.38,1.17.78,2.31,1.2,3.48s.92,2.4,1.46,3.63c1,2.32,2.11,4.69,3.4,7.09,4.83,9.11,11.77,18.85,20.77,29.11.83.91,1.86,2,3.11,3.23,1.95,1.94,4.43,4.31,7.43,7.08q3.56,3.25,8.06,7.29c11.17,10,26.91,23.51,47.33,40.85,42.86,36.25,72.11,68.16,86.94,94.87,14.51,26.17,21.05,52.17,19.37,77.22-2.43,36.68-18.09,66.79-47.83,92.08-29.39,25-64.42,36.33-104,33.71-30.57-2-58.11-12.17-81.88-30.12-20.51-15.48-39.42-39.56-56.19-71.53a11.09,11.09,0,0,1-.74-8.48,10.71,10.71,0,0,1,5.48-6.49l13.14-6.77a11.09,11.09,0,0,1,5-1.2,11.32,11.32,0,0,1,9.92,6c27.68,52.05,62.22,79.82,102.61,82.51a114.64,114.64,0,0,0,54.91-9.83c17.54-7.86,31.45-19.26,41.37-33.88a95,95,0,0,0,16.62-47.63c1.29-19.42-4-39.05-15.77-58.33-15.42-25.34-44.71-56.74-87-93.3-25.37-21.94-44.86-40.09-58.28-54.31q-3.14-3.3-5.8-6.29c-2-2.2-3.74-4.28-5.37-6.25a92.74,92.74,0,0,1-7.09-9.69,144.3,144.3,0,0,1-11.82-22c-1-2.32-1.92-4.69-2.75-7h0c-.82-2.32-1.6-4.66-2.25-7A119.43,119.43,0,0,1,182,121.07c1.43-21.6,8-41.19,19.49-58.25a111.6,111.6,0,0,1,46.56-39.14,127.81,127.81,0,0,1,62.85-11.37,133.07,133.07,0,0,1,65.25,22c16.65,11,34.08,29.45,51.79,54.85A10.86,10.86,0,0,1,429.75,97.44Z" transform="translate(-8.51 -7)"/><path class="cls-1" d="M376,601" transform="translate(-8.51 -7)"/><path class="cls-1" d="M376,619.81" transform="translate(-8.51 -7)"/></svg>