<svg id="Layer_1" data-name="Layer 1" xmlns="http://www.w3.org/2000/svg" viewBox="0 0 688.62 986.21"><defs><style>.cls-1,.cls-2{fill:#fff;stroke:#fff;stroke-miterlimit:10;}.cls-2{stroke-width:10px;}</style></defs><path class="cls-1" d="M841.57,373.36c-31.66-38.17-71.06-69-117.1-91.61C670.86,255.46,609.9,242.1,543.23,242.1q-15.72,0-31,1a233,233,0,0,0,22.53,29.8c3.56,3.89,10.57,10.61,21,20,50.78,1.44,98.17,12.6,141.08,33.14,39.48,18.94,74.61,45.83,104.38,79.86a13.23,13.23,0,0,0,18,1.95l20.38-15.64a12.85,12.85,0,0,0,5-8.88A13.1,13.1,0,0,0,841.57,373.36Zm-3,477.51-20.25-15.39a13.1,13.1,0,0,0-17.38,1.39c-68.61,72-153.46,108.57-252.17,108.57-96.26,0-177.18-31.37-240.55-93.18s-95.59-140.1-95.59-232.47c0-61,14.38-116.81,42.74-165.81s68.87-88.61,120.41-117.61a335,335,0,0,1,55.46-25c-2.37-3.17-4.44-6.18-6.21-9a232.79,232.79,0,0,1-20.25-38.34c-51.62,17.71-97.66,46.21-137.74,85.23-73,71-110,159.84-110,264,0,99.18,30.61,185,90.89,254.92C319.72,951,419.41,993,544.2,993c65.79,0,126.07-12.51,179.21-37.25,45.28-21,84.68-49.92,117.11-85.86a12.62,12.62,0,0,0,3.21-9.76A13.06,13.06,0,0,0,838.53,850.87Z" transform="translate(-156.5 -7.29)"/><path class="cls-2" d="M779.64,138.73a16.31,16.31,0,0,1-7.1,10.61L751.78,163a16.28,16.28,0,0,1-22.28-4.19c-21.69-30.35-40.71-51-58.17-63.07A142.73,142.73,0,0,0,598.4,70.41C563.61,68.09,534,77,510.21,96.84c-23.92,20-37.07,46.08-39.19,77.49a133.66,133.66,0,0,0,6.35,50.18c.55,1.73,1.14,3.42,1.77,5.16s1.35,3.55,2.16,5.37c1.43,3.42,3.13,6.93,5,10.48,7.14,13.49,17.42,27.9,30.73,43.08,1.23,1.35,2.75,3,4.61,4.78,2.88,2.87,6.55,6.38,11,10.48q5.26,4.81,11.92,10.78c16.53,14.76,39.83,34.79,70.06,60.46C678.05,428.74,721.34,476,743.28,515.49c21.48,38.73,31.16,77.2,28.66,114.28-3.59,54.28-26.76,98.84-70.77,136.25-43.5,37-95.33,53.78-153.92,49.89-45.24-3-86-18-121.16-44.56-30.36-22.92-58.35-58.55-83.16-105.86a16.45,16.45,0,0,1-1.1-12.56,15.92,15.92,0,0,1,8.12-9.59l19.44-10a16.35,16.35,0,0,1,7.36-1.78,16.73,16.73,0,0,1,14.67,8.84c41,77,92.08,118.12,151.85,122.09a169.51,169.51,0,0,0,81.26-14.54c26-11.63,46.54-28.5,61.21-50.14a140.59,140.59,0,0,0,24.61-70.48c1.9-28.74-5.92-57.79-23.34-86.32-22.83-37.5-66.16-84-128.81-138.08Q501.89,354.22,472,322.55c-3.08-3.26-6-6.34-8.58-9.3-2.91-3.26-5.54-6.34-7.95-9.26a141,141,0,0,1-10.48-14.33,213.9,213.9,0,0,1-17.5-32.6c-1.48-3.42-2.83-6.93-4.06-10.4h0c-1.23-3.42-2.37-6.89-3.34-10.36a176.89,176.89,0,0,1-6.94-62.61c2.12-32,11.84-61,28.84-86.2s40.16-44.64,68.91-57.91c28.91-13.36,60.2-19,93-16.83A197,197,0,0,1,700.37,45.3C725,61.58,750.81,88.89,777,126.47A16.2,16.2,0,0,1,779.64,138.73Z" transform="translate(-156.5 -7.29)"/><path class="cls-1" d="M700.09,883.91" transform="translate(-156.5 -7.29)"/><path class="cls-1" d="M700.09,911.74" transform="translate(-156.5 -7.29)"/></svg>